<?xml version="1.0" encoding="UTF-8" standalone="no"?>
<!-- Created with Inkscape (http://www.inkscape.org/) -->

<svg
   version="1.1"
   id="svg1"
   width="1024"
   height="1024"
   viewBox="0 0 1024 1024"
   sodipodi:docname="logo_white_no_text.svg"
   inkscape:version="1.4.2 (ebf0e940d0, 2025-05-08)"
   xmlns:inkscape="http://www.inkscape.org/namespaces/inkscape"
   xmlns:sodipodi="http://sodipodi.sourceforge.net/DTD/sodipodi-0.dtd"
   xmlns="http://www.w3.org/2000/svg"
   xmlns:svg="http://www.w3.org/2000/svg">
  <defs
     id="defs1" />
  <sodipodi:namedview
     id="namedview1"
     pagecolor="#ffffff"
     bordercolor="#000000"
     borderopacity="0.25"
     inkscape:showpageshadow="2"
     inkscape:pageopacity="0.0"
     inkscape:pagecheckerboard="0"
     inkscape:deskcolor="#d1d1d1"
     inkscape:zoom="0.5703125"
     inkscape:cx="667.17808"
     inkscape:cy="512"
     inkscape:window-width="1536"
     inkscape:window-height="795"
     inkscape:window-x="0"
     inkscape:window-y="0"
     inkscape:window-maximized="1"
     inkscape:current-layer="g1" />
  <g
     inkscape:groupmode="layer"
     inkscape:label="Image"
     id="g1">
    <path
       style="display:inline;fill:#ffffff"
       d="m 296.65453,449.25 c 21.86107,-29.0125 43.52358,-57.80404 48.13892,-63.98119 l 8.39152,-11.2312 4.26621,6.2312 c 9.52657,13.91447 41.45764,64.85611 46.067,73.49359 1.20486,2.25779 1.24284,2.24443 18.61266,-6.54765 9.57293,-4.84553 18.0329,-9.19792 18.79994,-9.67197 0.97504,-0.60261 -6.55182,-4.75147 -25.01808,-13.79016 -14.52699,-7.11053 -26.57037,-13.08389 -26.76309,-13.27415 -0.19271,-0.19025 0.98907,-2.06324 2.62617,-4.16219 4.22064,-5.41134 34.94225,-47.46488 45.36863,-62.10324 4.81336,-6.75783 8.95787,-12.38283 9.21004,-12.5 0.5117,-0.23777 14.48846,19.66314 50.78833,72.31536 40.68211,59.00855 62.1782,90.78495 64.75373,95.7216 l 1.17386,2.25 H 409.98876 256.90715 Z m 364.30976,51.35868 C 660.15893,499.84346 653.65,495.01534 646.5,489.87954 c -7.15,-5.13581 -19.56609,-14.07222 -27.5913,-19.85869 -8.02522,-5.78647 -37.50022,-26.8935 -65.5,-46.90453 -27.99979,-20.01102 -51.27898,-36.7163 -51.73154,-37.12284 -0.45256,-0.40654 2.94661,-5.18388 7.55371,-10.61632 9.67178,-11.40442 29.95154,-35.55763 50.07409,-59.63828 7.70337,-9.21862 14.08546,-16.64362 14.18241,-16.5 0.0969,0.14361 4.21033,4.76112 9.14083,10.26112 4.93051,5.5 18.83213,21.25 30.8925,35 12.06037,13.75 27.5645,31.31452 34.45363,39.03226 6.88912,7.71775 16.41683,18.51775 21.17268,24 4.75586,5.48226 16.68086,19.20611 26.5,30.49745 C 728.91746,476.28845 750,500.88567 750,501.44391 750,501.74976 730.29643,502 706.21429,502 c -36.03217,0 -44.04501,-0.24637 -45.25,-1.39132 z"
       id="path1"
       sodipodi:nodetypes="sscssssssssssscccsssssssssssssssss" />
  </g>
</svg>
