<?xml version="1.0" encoding="UTF-8" standalone="no"?>
<!-- Created with Inkscape (http://www.inkscape.org/) -->

<svg
   version="1.1"
   id="svg1"
   width="1024"
   height="1024"
   viewBox="0 0 1024 1024"
   sodipodi:docname="logo_blue_no_text.svg"
   inkscape:version="1.4.2 (ebf0e940d0, 2025-05-08)"
   xmlns:inkscape="http://www.inkscape.org/namespaces/inkscape"
   xmlns:sodipodi="http://sodipodi.sourceforge.net/DTD/sodipodi-0.dtd"
   xmlns="http://www.w3.org/2000/svg"
   xmlns:svg="http://www.w3.org/2000/svg">
  <defs
     id="defs1" />
  <sodipodi:namedview
     id="namedview1"
     pagecolor="#ffffff"
     bordercolor="#000000"
     borderopacity="0.25"
     inkscape:showpageshadow="2"
     inkscape:pageopacity="0.0"
     inkscape:pagecheckerboard="0"
     inkscape:deskcolor="#d1d1d1"
     inkscape:zoom="0.5703125"
     inkscape:cx="512.87671"
     inkscape:cy="512"
     inkscape:window-width="1536"
     inkscape:window-height="795"
     inkscape:window-x="0"
     inkscape:window-y="0"
     inkscape:window-maximized="1"
     inkscape:current-layer="g1" />
  <g
     inkscape:groupmode="layer"
     inkscape:label="Image"
     id="g1">
    <path
       style="fill:#78b0cb;fill-opacity:1"
       d="M 329.75,529.23949 C 305.6875,529.09621 286,528.72041 286,528.40438 c 0,-0.31603 2.64121,-3.5738 5.86936,-7.23949 8.13709,-9.24 55.99565,-67.29943 77.03527,-93.45505 9.57254,-11.90021 17.76991,-21.41099 18.21636,-21.13506 0.91732,0.56693 34.77537,45.78082 45.41813,60.65114 4.79623,6.70142 7.47623,9.61459 8.61809,9.36789 C 443.67095,476.05072 467,461.9972 467,461.026 c 0,-0.46663 -9.45,-10.0371 -21,-21.26772 -11.55,-11.23061 -21,-20.65316 -21,-20.93901 0,-0.28584 5.5125,-7.92771 12.25,-16.98193 6.7375,-9.05422 14.95,-20.3484 18.25,-25.09819 3.3,-4.74979 6.30323,-8.6592 6.67384,-8.68757 0.37061,-0.0284 4.31571,4.66606 8.7669,10.43206 4.45119,5.766 13.82296,17.13294 20.82616,25.25987 23.5741,27.35675 45.44126,53.71434 74.87988,90.25649 5.53855,6.875 14.18379,17.4097 19.21165,23.41044 5.02787,6.00074 9.14157,11.32178 9.14157,11.82454 0,0.81563 -128.66372,0.81782 -265.25,0.005 z m 314.60901,-0.006 c -2.65026,-0.28992 -6.24252,-3.733 -22.99318,-22.03837 C 610.44712,495.26265 598.11765,481.9 593.96702,477.5 581.86669,464.6727 563.95384,445.19204 541.55441,420.5 530.07894,407.85 519.1506,395.87112 517.26922,393.88027 l -3.4207,-3.61972 20.16197,-24.38028 C 545.09958,352.47112 556.37899,339.025 559.07585,336 l 4.90339,-5.5 7.11813,7.5 c 3.91497,4.125 18.11676,19.97673 31.55954,35.22606 13.44277,15.24933 32.86089,37.07433 43.15136,48.5 10.29048,11.42567 23.42776,26.17394 29.19396,32.77394 5.7662,6.6 19.94051,22.575 31.49847,35.5 30.10437,33.66501 33.85855,37.97903 33.40481,38.38625 -0.53773,0.4826 -91.50576,1.2889 -95.5465,0.84689 z"
       id="path1"
       sodipodi:nodetypes="csssssssssssssssssccccssscsscsssssscc" />
  </g>
</svg>
