<?xml version="1.0" encoding="UTF-8" standalone="no"?>
<!-- Created with Inkscape (http://www.inkscape.org/) -->

<svg
   version="1.1"
   id="svg1"
   width="1024"
   height="1024"
   viewBox="0 0 1024 1024"
   sodipodi:docname="logo_white.svg"
   inkscape:version="1.4.2 (ebf0e940d0, 2025-05-08)"
   xmlns:inkscape="http://www.inkscape.org/namespaces/inkscape"
   xmlns:sodipodi="http://sodipodi.sourceforge.net/DTD/sodipodi-0.dtd"
   xmlns="http://www.w3.org/2000/svg"
   xmlns:svg="http://www.w3.org/2000/svg">
  <defs
     id="defs1" />
  <sodipodi:namedview
     id="namedview1"
     pagecolor="#ffffff"
     bordercolor="#000000"
     borderopacity="0.25"
     inkscape:showpageshadow="2"
     inkscape:pageopacity="0.0"
     inkscape:pagecheckerboard="0"
     inkscape:deskcolor="#d1d1d1"
     inkscape:zoom="0.5703125"
     inkscape:cx="511.12329"
     inkscape:cy="512"
     inkscape:window-width="1536"
     inkscape:window-height="795"
     inkscape:window-x="0"
     inkscape:window-y="0"
     inkscape:window-maximized="1"
     inkscape:current-layer="g1" />
  <g
     inkscape:groupmode="layer"
     inkscape:label="Image"
     id="g1">
    <path
       style="display:inline;fill:#ffffff"
       d="m 373,623.47668 c -11.2123,-3.08988 -20.79597,-11.98133 -25.00009,-23.19437 -3.12504,-8.33495 -2.53707,-21.47502 1.3117,-29.31417 7.33385,-14.93754 21.6767,-22.72777 38.32824,-20.81774 21.98792,2.52214 37.49033,26.87789 30.40343,47.76668 -5.40831,15.94114 -17.37591,25.46234 -33.47728,26.63391 -3.68956,0.26846 -8.2207,-0.15241 -11.566,-1.07431 z m 22.18163,-18.07666 c 13.29095,-9.47165 11.18205,-31.78752 -3.64026,-38.52036 -7.69794,-3.49668 -17.62655,-1.69838 -24.28115,4.3979 C 364.58645,573.727 361,582.83256 361,587.17149 c 0,7.65347 4.94828,16.17469 11.34,19.52814 7.25643,3.80713 16.40619,3.28654 22.84163,-1.29961 z M 476,623.18049 c -3.025,-1.01076 -6.85,-2.54471 -8.5,-3.40878 -4.74694,-2.48587 -11.35004,-9.76774 -14.29547,-15.76499 C 450.76281,599.03511 450.5,597.43108 450.5,587.5 c 0,-10.0116 0.25046,-11.51003 2.78746,-16.67623 3.91278,-7.96778 10.98915,-15.14929 18.16051,-18.43034 4.99777,-2.28657 7.3142,-2.72108 14.5,-2.71982 9.93672,0.002 16.77831,2.53662 23.55203,8.7263 4.48953,4.10243 4.97593,3.08886 -4.4026,9.17416 l -4.73769,3.07406 -3.28508,-2.53337 c -4.66553,-3.59794 -14.24594,-4.18525 -20.27481,-1.24292 -6.9003,3.36763 -11.75509,12.12742 -11.78476,21.26397 -0.0192,5.92495 4.33716,14.51104 8.93456,17.60922 7.59645,5.11925 17.98479,5.07189 24.48554,-0.11163 l 2.92583,-2.33297 5.8195,3.46666 c 3.20073,1.90666 5.81951,4.07449 5.81951,4.81739 0,1.942 -9.83992,9.09334 -15.06156,10.94627 -7.0831,2.51347 -15.60529,2.76586 -21.93844,0.64974 z m 190.7175,0.72793 c -8.13992,-1.91672 -13.82059,-6.77973 -15.59723,-13.35219 -0.58633,-2.16908 -0.96576,-4.02567 -0.84317,-4.12577 0.1226,-0.1001 1.18276,-0.47653 2.35593,-0.8365 1.81422,-0.55666 2.22598,-0.15905 2.75488,2.66023 1.46477,7.80792 7.82459,11.70189 19.11209,11.70189 8.07334,0 13.97502,-2.20192 17.3286,-6.46531 1.66341,-2.11469 2.1714,-4.1216 2.1714,-8.57858 0,-11.51215 -1.67798,-12.72158 -24.2516,-17.47975 -4.26338,-0.89865 -9.21338,-2.61005 -11,-3.80311 -11.80062,-7.88014 -7.1602,-28.39079 7.39889,-32.70307 1.84399,-0.54618 6.22287,-1.00615 9.73084,-1.02215 5.03403,-0.023 7.56069,0.56359 11.98963,2.78339 6.0195,3.017 8.51312,6.25719 9.66798,12.5625 0.65045,3.5513 0.54848,3.75 -1.92445,3.75 C 693.3578,569 693,568.57523 693,565.9 c 0,-6.77296 -10.10061,-12.62523 -20.12744,-11.66178 -10.16551,0.97678 -15.86791,6.6813 -15.87101,15.87692 -0.003,8.35713 4.38968,11.42331 20.63495,14.40425 11.64592,2.13698 16.42883,4.47286 19.17941,9.36685 4.29813,7.64749 2.08781,20.89793 -4.32781,25.94446 -5.64824,4.4429 -16.75577,6.20047 -25.7706,4.07772 z M 193,587.60699 C 193,546.36147 192.12132,550 202.08179,550 H 208 v 37 37 h -7.5 -7.5 z m 26.23768,-0.16629 0.26232,-36.5593 6.8255,-0.24633 6.8255,-0.24633 12.13351,18.05563 c 6.67344,9.9306 13.27696,19.79441 14.67451,21.91959 L 262.5,594.22792 263,572.36396 263.5,550.5 h 7.34057 7.34057 l 0.4533,36.75 0.4533,36.75 h -6.92662 -6.92662 l -9.79891,-14.25 c -5.3894,-7.8375 -12.30466,-17.85 -15.36725,-22.25 l -5.56834,-8 -0.26913,22.25 -0.26913,22.25 h -7.49319 -7.49319 z m 76.39602,1.8093 c -6.3055,-19.1125 -11.7525,-35.4769 -12.10444,-36.36534 -0.53786,-1.35777 0.45471,-1.7232 6.22479,-2.29177 7.74029,-0.7627 10.24595,-0.17899 10.24595,2.38688 0,0.97119 1.50819,6.43555 3.35154,12.14302 3.70259,11.46415 8.76622,27.81825 9.09589,29.37721 0.11631,0.55 0.89614,2.575 1.73295,4.5 l 1.52148,3.5 6.07794,-19 c 3.34287,-10.45 7.06861,-22.31132 8.27942,-26.35849 l 2.20149,-7.35849 7.429,0.50118 c 4.08596,0.27565 7.61079,0.68296 7.83296,0.90514 0.22217,0.22217 -5.09204,16.69506 -11.80936,36.60643 L 323.5,623.99825 315.29912,623.99913 307.09824,624 Z M 427,587.625 V 551.25 l 3.125,-0.625 c 1.71875,-0.34375 5.09375,-0.625 7.5,-0.625 H 442 v 37 37 h -7.5 -7.5 z m 92,-0.125 c 0,-20.075 0.3375,-36.52926 0.75,-36.56502 0.4125,-0.0358 10.5375,-0.25045 22.5,-0.47708 L 564,550.04584 V 557.52292 565 h -15 -15 v 7.47012 7.47013 l 12.75,0.27987 12.75,0.27988 0.29569,6.75 0.29569,6.75 H 547.04569 534 v 8 8 h 14.88342 14.88343 l 0.48786,2.55211 c 0.26833,1.40366 0.26226,4.55366 -0.0135,7 L 563.7399,624 H 541.36995 519 Z m 75.27426,33.25 c -0.58371,-1.7875 -3.61727,-10.45 -6.74123,-19.25 -3.12397,-8.8 -6.14367,-17.575 -6.71045,-19.5 -0.56678,-1.925 -1.37168,-3.95 -1.78866,-4.5 -0.41698,-0.55 -1.11557,-2.35 -1.55241,-4 -1.12593,-4.25269 -1.08724,-4.13665 -4.44203,-13.32248 C 571.36777,555.60015 570,551.40776 570,550.8611 c 0,-0.54667 1.14982,-0.85155 2.55516,-0.67752 2.34127,0.28993 3.00267,1.61395 7.90099,15.81642 2.94021,8.525 7.90435,22.7 11.03143,31.5 3.12708,8.8 5.92409,17.0125 6.21559,18.25 1.14587,4.86469 1.09459,4.9811 13.98574,-31.75 3.57102,-10.175 7.63369,-21.9875 9.02815,-26.25 2.21742,-6.77805 2.83309,-7.75 4.90916,-7.75 1.30558,0 2.37378,0.39155 2.37378,0.87012 0,0.76544 -12.79684,37.82577 -22.05757,63.87988 l -3.28784,9.25 h -3.65951 c -3.24432,0 -3.77993,-0.36874 -4.72082,-3.25 z M 636,587 v -37 h 2.5 2.5 v 37 37 h -2.5 -2.5 z m 94,2.5 V 555 h -12.60699 c -11.08508,0 -12.53371,-0.19095 -12,-1.58179 0.33385,-0.86998 0.60699,-1.99498 0.60699,-2.5 C 706,550.38327 717.26997,550 733,550 h 27 v 2.5 2.5 H 747.5 735 v 34.5 34.5 h -2.5 -2.5 z m 24,34.12712 c 0,-0.20509 4.752,-13.14259 10.56001,-28.75 5.80801,-15.60742 11.92556,-32.08962 13.59457,-36.62712 l 3.03457,-8.25 h 3.74536 c 3.53023,0 3.82206,0.24413 5.08043,4.25 0.73427,2.3375 2.35773,6.95 3.60768,10.25 2.24562,5.92866 7.15685,19.40144 12.0295,33 1.37953,3.85 2.8689,7.9 3.30971,9 2.24939,5.61316 6.03817,16.13885 6.03817,16.77476 0,0.39888 -1.06526,0.72524 -2.36725,0.72524 -2.04792,0 -2.78984,-1.11968 -5.5,-8.30034 C 805.40974,611.13448 804,606.85948 804,606.19966 804,605.30907 799.1276,605 785.08742,605 h -18.91257 l -2.5482,6.75 c -1.40151,3.7125 -3.00472,7.9875 -3.56268,9.5 -0.74,2.00598 -1.69754,2.75 -3.53922,2.75 C 755.13614,624 754,623.8322 754,623.62712 Z M 793.8566,579.25 c -4.29617,-11.4125 -7.82143,-21.3125 -7.83391,-22 -0.0607,-3.34555 -2.0177,-0.38378 -5.28594,8 C 776.11453,577.10703 768,598.95756 768,599.54707 768,599.79618 775.57526,600 784.83391,600 h 16.83392 z m -497.20207,-130 c 21.86107,-29.0125 43.52358,-57.80404 48.13892,-63.98119 l 8.39152,-11.2312 4.26621,6.2312 c 9.52657,13.91447 41.45764,64.85611 46.067,73.49359 1.20486,2.25779 1.24284,2.24443 18.61266,-6.54765 9.57293,-4.84553 18.0329,-9.19792 18.79994,-9.67197 0.97504,-0.60261 -6.55182,-4.75147 -25.01808,-13.79016 -14.52699,-7.11053 -26.57037,-13.08389 -26.76309,-13.27415 -0.19271,-0.19025 0.98907,-2.06324 2.62617,-4.16219 4.22064,-5.41134 34.94225,-47.46488 45.36863,-62.10324 4.81336,-6.75783 8.95787,-12.38283 9.21004,-12.5 0.5117,-0.23777 14.48846,19.66314 50.78833,72.31536 40.68211,59.00855 62.1782,90.78495 64.75373,95.7216 l 1.17386,2.25 H 409.98876 256.90715 Z m 364.30976,51.35868 C 660.15893,499.84346 653.65,495.01534 646.5,489.87954 c -7.15,-5.13581 -19.56609,-14.07222 -27.5913,-19.85869 -8.02522,-5.78647 -37.50022,-26.8935 -65.5,-46.90453 -27.99979,-20.01102 -51.27898,-36.7163 -51.73154,-37.12284 -0.45256,-0.40654 2.94661,-5.18388 7.55371,-10.61632 9.67178,-11.40442 29.95154,-35.55763 50.07409,-59.63828 7.70337,-9.21862 14.08546,-16.64362 14.18241,-16.5 0.0969,0.14361 4.21033,4.76112 9.14083,10.26112 4.93051,5.5 18.83213,21.25 30.8925,35 12.06037,13.75 27.5645,31.31452 34.45363,39.03226 6.88912,7.71775 16.41683,18.51775 21.17268,24 4.75586,5.48226 16.68086,19.20611 26.5,30.49745 C 728.91746,476.28845 750,500.88567 750,501.44391 750,501.74976 730.29643,502 706.21429,502 c -36.03217,0 -44.04501,-0.24637 -45.25,-1.39132 z"
       id="path1" />
  </g>
</svg>
