<?xml version="1.0" encoding="UTF-8" standalone="no"?>
<!-- Created with Inkscape (http://www.inkscape.org/) -->

<svg
   version="1.1"
   id="svg1"
   width="681.02533"
   height="75.92971"
   viewBox="0 0 681.02533 75.92971"
   sodipodi:docname="logo_text_blue.svg"
   inkscape:version="1.4.2 (ebf0e940d0, 2025-05-08)"
   xmlns:inkscape="http://www.inkscape.org/namespaces/inkscape"
   xmlns:sodipodi="http://sodipodi.sourceforge.net/DTD/sodipodi-0.dtd"
   xmlns="http://www.w3.org/2000/svg"
   xmlns:svg="http://www.w3.org/2000/svg">
  <defs
     id="defs1" />
  <sodipodi:namedview
     id="namedview1"
     pagecolor="#ffffff"
     bordercolor="#000000"
     borderopacity="0.25"
     inkscape:showpageshadow="2"
     inkscape:pageopacity="0.0"
     inkscape:pagecheckerboard="0"
     inkscape:deskcolor="#d1d1d1"
     inkscape:zoom="0.5703125"
     inkscape:cx="341.0411"
     inkscape:cy="-63.123288"
     inkscape:window-width="1920"
     inkscape:window-height="1043"
     inkscape:window-x="0"
     inkscape:window-y="0"
     inkscape:window-maximized="1"
     inkscape:current-layer="g1" />
  <g
     inkscape:groupmode="layer"
     inkscape:label="Image"
     id="g1"
     transform="translate(-171.97467,-574.8848)">
    <path
       style="fill:#78b0cb;fill-opacity:1"
       d="m 368.68693,649.8252 c -11.45821,-1.51585 -22.53798,-10.46569 -26.68799,-21.55757 -10.87192,-29.05782 10.50734,-56.91169 40.15223,-52.31213 17.02053,2.64083 28.14035,13.59011 30.81684,30.34423 4.359,27.2863 -15.9722,47.27058 -44.28108,43.52547 z m 18.67246,-17.42344 c 7.11436,-4.83434 10.57668,-17.16427 7.66788,-27.30669 -4.15089,-14.4733 -20.97186,-19.464 -32.00542,-9.49585 -8.36506,7.55733 -9.51013,23.91331 -2.27604,32.51054 4.53294,5.3871 7.95748,6.88234 15.77206,6.8865 5.91238,0.003 7.62018,-0.40554 10.84152,-2.5945 z m 86.35811,17.56377 C 456.71452,645.70509 445.79878,629.38912 447.31418,610.5 c 0.30888,-3.85 1.26928,-9.025 2.13424,-11.5 3.31664,-9.49026 13.50614,-19.3873 22.889,-22.23201 2.28942,-0.69411 7.76258,-1.23912 12.16258,-1.21114 6.57218,0.0418 9.11268,0.5552 14.23431,2.87654 7.08483,3.21115 14.30618,10.23798 17.30072,16.83469 C 519.02781,601.86093 518.91347,602 510.5,602 c -4.15308,0 -7.5,-0.43073 -7.5,-0.9652 0,-0.53087 -1.37097,-2.52666 -3.0466,-4.43509 -8.80325,-10.02635 -26.18937,-7.93098 -32.36226,3.90029 -1.48004,2.83673 -2.1816,6.32654 -2.41238,12 -0.27966,6.87513 0.007,8.62168 2.03694,12.42134 1.2993,2.43173 4.07406,5.80673 6.16615,7.5 3.5678,2.88765 4.32084,3.07866 12.13764,3.07866 9.42228,0 12.0834,-1.27503 16.42475,-7.86966 l 2.44425,-3.71286 6.55575,0.29126 c 7.44407,0.33073 7.61919,0.70926 3.92495,8.48407 -2.86528,6.0302 -9.19039,12.10669 -15.71381,15.09612 -6.2724,2.87441 -18.48323,3.91923 -25.43788,2.1766 z M 172.23733,614.28912 172.5,578.5 180,577.87851 c 4.125,-0.34182 7.82656,-0.33025 8.2257,0.0257 0.39913,0.35595 0.76011,16.61062 0.80217,36.12149 l 0.0765,35.4743 -8.56485,0.28912 -8.56485,0.28912 z M 423.23753,613.75 423.5,577.5 h 8 8 l 0.30223,36.25 0.30223,36.25 h -8.5647 -8.56471 z m 105.22539,35.01396 c -0.26898,-0.70094 -0.37067,-17.24708 -0.22598,-36.7692 L 528.5,576.5 h 22.5 22.5 l 0.29772,6.25 0.29771,6.25 H 559.04772 544 v 8.5 8.5 h 14.5 14.5 v 6 6 l -14.75,-0.002 -14.75,-0.002 0.318,9.47589 0.318,9.4759 14.682,0.27635 L 573.5,637.5 v 6 6 l -22.27402,0.2692 c -17.32269,0.20935 -22.38273,-0.0141 -22.76306,-1.00524 z m 165.5687,-0.0733 c -5.19269,-1.65466 -12.61721,-9.3343 -13.98319,-14.46369 -1.40226,-5.26562 -0.86328,-6.22693 3.4913,-6.22693 3.08678,0 3.64382,0.45914 5.69098,4.69079 3.30865,6.83921 6.40382,8.70139 15.20121,9.14564 C 716.08508,642.42489 722,638.3511 722,629.73675 c 0,-5.31213 -4.03225,-8.28706 -18.15594,-13.39516 -6.78923,-2.45546 -14.01573,-5.61206 -16.05889,-7.01466 -3.93588,-2.70193 -7.78889,-9.33494 -7.77959,-13.39265 0.0177,-7.72801 5.30869,-15.80879 12.48584,-19.0693 8.50308,-3.86286 24.47422,-1.82291 30.84701,3.94001 2.62231,2.37135 5.66157,8.62812 5.66157,11.65517 0,2.29505 -0.38422,2.53984 -3.98658,2.53984 -3.547,0 -4.13924,-0.35836 -5.37112,-3.25 -3.09837,-7.27294 -10.62056,-10.55484 -19.75675,-8.61977 -5.52588,1.1704 -9.46392,4.92625 -10.37672,9.89664 -1.15931,6.31277 3.63857,10.30612 17.99117,14.97432 7.0112,2.2804 14.57875,5.81972 17.62342,8.2424 3.31275,2.636 5.86929,8.20992 5.85088,12.75641 -0.0359,8.86697 -6.36325,17.30192 -14.89658,19.85857 -4.71613,1.41298 -17.38771,1.31645 -22.0461,-0.16795 z M 844.0759,648.5 c -0.41472,-0.55 -2.22703,-4.7125 -4.02737,-9.25 L 836.7752,631 819.1376,631.0152 801.5,631.0304 798.00527,640.01522 794.51053,649 h -4.25526 c -2.75145,0 -4.24606,-0.44175 -4.2292,-1.25 0.0143,-0.6875 6.43149,-17 14.26034,-36.25 l 14.23428,-35 4.07612,-0.29951 c 2.47904,-0.18215 4.47448,0.20966 5.09283,1 1.12747,1.4411 29.31036,70.16845 29.31036,71.47685 0,1.17878 -8.02174,1.01938 -8.9241,-0.17734 z M 833,622.41011 C 833,621.13695 819.54577,588 819.02884,588 c -0.30284,0 -3.47072,7.49166 -7.03973,16.64814 -3.56901,9.15648 -6.63911,17.03148 -6.82244,17.5 -0.18334,0.46852 6.00416,0.85186 13.75,0.85186 C 826.6625,623 833,622.73455 833,622.41011 Z m -632,-9.32129 v -35.91118 l 6.25,-0.40934 c 3.45501,-0.22629 7.0421,0.0694 8.02125,0.66118 0.97419,0.58878 8.51169,11.6019 16.75,24.47359 L 247,625.30613 V 601.67212 578.0381 l 2.31627,-0.58134 c 1.27395,-0.31974 4.53645,-0.44082 7.25,-0.26905 L 261.5,577.5 l 0.26263,35.75 0.26263,35.75 h -8.05698 -8.05699 L 230.95565,626.30016 216,603.60032 V 626.30016 649 H 208.5 201 Z M 294.14623,646.25 C 290.21858,636.39878 269,578.74988 269,577.93004 c 0,-0.62218 3.33323,-0.89733 8.70974,-0.71897 l 8.70975,0.28893 8.59028,26.5 8.59028,26.5 2.70372,-7.5 c 1.48705,-4.125 5.40706,-16.01752 8.71112,-26.42781 3.30407,-10.4103 6.11488,-19.03148 6.24625,-19.15819 0.79418,-0.766 17.2072,-0.61846 17.05534,0.1533 -0.1725,0.87666 -22.86205,62.74311 -25.18942,68.6827 -1.05654,2.69635 -1.2415,2.75 -9.48099,2.75 -8.23491,0 -8.42542,-0.0552 -9.49984,-2.75 z M 597.6202,614.52985 c -7.5855,-18.95858 -14.03069,-35.38358 -14.32264,-36.5 -0.46628,-1.78303 -0.0607,-2.02799 3.33581,-2.01454 2.12665,0.008 4.36379,0.34592 4.97142,0.75 0.60763,0.40408 6.28204,14.14658 12.60979,30.53889 6.32776,16.3923 11.83619,29.8923 12.24097,30 0.40478,0.10769 6.01074,-13.5292 12.45769,-30.3042 l 11.72174,-30.5 4.68251,-0.30479 c 2.57538,-0.16764 4.68251,-0.0951 4.68251,0.16129 0,0.25634 -6.01813,15.6935 -13.37362,34.30479 -7.35549,18.61129 -13.68581,34.85121 -14.06738,36.08871 -0.60369,1.95785 -1.37243,2.25 -5.92037,2.25 h -5.2266 z M 659.23768,612.25 659.5,575.5 663.75,575.1925 668,574.885 V 611.9425 649 h -4.51232 -4.51232 z M 760,616.5 V 584 H 748.5 737 v -3.89301 c 0,-2.25005 0.52753,-4.04945 1.25,-4.26368 0.6875,-0.20387 12.8375,-0.2179 27,-0.0312 L 791,576.1516 V 580.0758 584 l -11.25,-4.9e-4 -11.25,-4.9e-4 0.27678,32.50049 L 769.05355,649 H 764.52678 760 Z"
       id="path1"
       sodipodi:nodetypes="ssssssssssssssssssssssssssscssssccssscccccccccccccsscccccccccccccccccccccsssssssssssssssssssssssssscccccssscssssssssssccssscccssccccccccccccssscccssssssssscsssscssssscscccccccccccccssscccccccccc" />
  </g>
</svg>
